<svg width="100%" height="100%" overflow="visible" style="display: block;" viewBox="0 0 23.3333 25.4497" fill="none" xmlns="http://www.w3.org/2000/svg">
<g id="Group">
<g id="Vector">
</g>
<path id="Vector_2" d="M11.6667 0C18.1102 0 23.3333 5.22317 23.3333 11.6667C23.3333 18.1102 18.1102 23.3333 11.6667 23.3333C5.22317 23.3333 0 18.1102 0 11.6667C0 5.22317 5.22317 0 11.6667 0ZM11.6667 2.33333C9.19131 2.33333 6.81734 3.31666 5.067 5.067C3.31666 6.81734 2.33333 9.19131 2.33333 11.6667C2.33333 14.142 3.31666 16.516 5.067 18.2663C6.81734 20.0167 9.19131 21 11.6667 21C14.142 21 16.516 20.0167 18.2663 18.2663C20.0167 16.516 21 14.142 21 11.6667C21 9.19131 20.0167 6.81734 18.2663 5.067C16.516 3.31666 14.142 2.33333 11.6667 2.33333ZM11.6667 5.83333C11.9761 5.83333 12.2728 5.95625 12.4916 6.17504C12.7104 6.39383 12.8333 6.69058 12.8333 7V10.5H16.3333C16.6428 10.5 16.9395 10.6229 17.1583 10.8417C17.3771 11.0605 17.5 11.3572 17.5 11.6667C17.5 11.9761 17.3771 12.2728 17.1583 12.4916C16.9395 12.7104 16.6428 12.8333 16.3333 12.8333H12.8333V16.3333C12.8333 16.6428 12.7104 16.9395 12.4916 17.1583C12.2728 17.3771 11.9761 17.5 11.6667 17.5C11.3572 17.5 11.0605 17.3771 10.8417 17.1583C10.6229 16.9395 10.5 16.6428 10.5 16.3333V12.8333H7C6.69058 12.8333 6.39383 12.7104 6.17504 12.4916C5.95625 12.2728 5.83333 11.9761 5.83333 11.6667C5.83333 11.3572 5.95625 11.0605 6.17504 10.8417C6.39383 10.6229 6.69058 10.5 7 10.5H10.5V7C10.5 6.69058 10.6229 6.39383 10.8417 6.17504C11.0605 5.95625 11.3572 5.83333 11.6667 5.83333Z" fill="#1E83FF"/>
</g>
</svg>
