<svg width="14" height="14" viewBox="0 0 14 14" fill="none" xmlns="http://www.w3.org/2000/svg">
<path fill-rule="evenodd" clip-rule="evenodd" d="M9.36833 6.38167C9.53219 6.54573 9.62423 6.76812 9.62423 7C9.62423 7.23188 9.53219 7.45427 9.36833 7.61833L6.069 10.9188C5.90485 11.0829 5.68225 11.175 5.45017 11.175C5.21808 11.1749 4.99553 11.0827 4.83146 10.9185C4.66739 10.7544 4.57525 10.5318 4.5753 10.2997C4.57536 10.0676 4.6676 9.84507 4.83175 9.681L7.51275 7L4.83175 4.319C4.67228 4.15405 4.58398 3.93306 4.58587 3.70364C4.58775 3.47421 4.67967 3.25471 4.84183 3.0924C5.00398 2.93009 5.2234 2.83796 5.45282 2.83586C5.68225 2.83376 5.90331 2.92185 6.06842 3.08117L9.36892 6.38108L9.36833 6.38167Z" fill="#187AEA"/>
</svg>
