<svg xmlns="http://www.w3.org/2000/svg" viewBox="0 0 407.615 407.615" fill="none">
  <rect width="407.615" height="407.615" rx="106.681" fill="url(#iconGradient)"/>
  <!-- White "f" glyph + dots (Union) -->
  <path d="M59.1827 158.063C139.354 161.733 168.359 165.966 180.45 204.307C182.468 210.706 177.353 216.884 170.644 216.884C164.767 216.884 160.003 221.648 160.003 227.524V307.105C160.003 319.195 160.003 325.24 157.795 329.919C155.51 334.761 151.612 338.659 146.77 340.944C142.091 343.152 136.046 343.152 123.957 343.152C111.868 343.152 105.823 343.152 101.144 340.944C96.3011 338.659 92.4035 334.761 90.1182 329.919C87.9102 325.24 87.9102 319.195 87.9102 307.105V234.965C87.9102 225.135 80.0661 217.137 70.296 216.889L69.3624 216.878C59.5923 216.63 51.7483 208.632 51.7481 198.803V165.498C51.7481 161.392 55.0769 158.063 59.1827 158.063ZM238.77 154.415C269.425 146.245 298.807 156.625 304.398 177.599C309.987 198.574 289.667 222.201 259.012 230.371C228.357 238.54 198.975 228.16 193.385 207.185C187.795 186.211 208.114 162.585 238.77 154.415ZM184.036 50.9519C189.122 50.952 193.894 51.1541 198.591 51.5925C217.595 53.3665 229.161 72.1725 226.721 91.1023C225.06 103.983 211.101 112.048 198.127 111.455C196.943 111.401 195.753 111.373 194.565 111.373C182.395 111.373 170.229 114.529 163.306 123.56C153.164 136.789 148.093 143.404 146.476 144.822C144.236 146.786 144.408 146.671 141.734 147.986C139.806 148.935 139.664 148.973 139.382 149.048C129.915 151.568 118.55 153.258 104.868 154.53C95.7002 155.382 87.9102 148.045 87.9102 138.838C87.9105 93.2927 116.749 50.952 184.036 50.9519ZM232.203 104.778C237.034 90.5328 257.828 84.7075 278.649 91.7673C299.469 98.8273 312.431 116.099 307.601 130.344C302.77 144.59 281.976 150.416 261.155 143.356C240.335 136.296 227.373 119.024 232.203 104.778Z" fill="#FFFFFF"/>
  <!-- 銀 (small label, lower right) -->
  <path d="M214.465 293.14C214.173 293.14 214.014 292.796 214.201 292.572C216.094 290.299 217.728 288.098 219.1 285.968C219.379 285.535 219.988 285.47 220.34 285.846C220.611 286.136 220.885 286.437 221.16 286.749C222.58 288.311 223.905 289.921 225.136 291.578C225.644 292.217 225.181 293.14 224.364 293.14H214.465ZM207.651 299.147C207.66 299.162 207.68 299.165 207.693 299.154C207.711 299.138 207.739 299.151 207.739 299.175V300.863C207.739 301.304 208.096 301.661 208.537 301.661H211.964C213.043 301.661 213.917 302.535 213.917 303.613C213.917 304.692 213.043 305.566 211.964 305.566H207.991C206.323 305.566 204.97 306.919 204.97 308.588V311.207C204.97 312.876 206.323 314.229 207.991 314.229H212.984C213.499 314.229 213.917 314.647 213.917 315.162V322.1C213.917 322.504 213.23 322.574 213.136 322.182C212.89 321.054 212.632 319.97 212.362 318.93C211.954 317.364 210.339 316.468 208.774 316.877L208.003 317.078C206.374 317.503 205.41 319.178 205.787 320.82C206.024 321.848 206.248 322.917 206.461 324.028C206.625 324.868 206.765 325.669 206.88 326.432C207.138 328.14 208.821 329.329 210.481 328.854L211.934 328.439C212.928 328.155 213.917 328.901 213.917 329.935C213.917 330.711 213.344 331.369 212.575 331.475L212 331.555C210.246 331.771 208.601 331.971 207.063 332.156C205.293 332.369 204.087 334.056 204.462 335.798L205.144 338.962C205.484 340.539 207.003 341.571 208.595 341.309C210.315 341.026 212.113 340.733 213.988 340.431C216.97 339.958 220.023 339.461 223.148 338.94C224.94 338.646 226.709 338.351 228.456 338.057C229.718 337.845 230.935 338.624 231.268 339.859C231.612 341.135 232.895 341.918 234.185 341.633C236.616 341.097 239.209 340.507 241.965 339.863C245.251 339.137 248.461 338.392 251.594 337.628C252.179 337.486 252.565 336.92 252.499 336.321C252.352 334.997 254.462 334.24 255.243 335.318C257.072 337.757 259.281 339.842 261.87 341.574C263.262 342.505 265.112 341.924 266.051 340.539C266.139 340.41 266.229 340.279 266.321 340.147C267.078 339.058 267.883 337.993 268.735 336.952C269.76 335.756 269.447 333.782 268.118 332.938C266.181 331.708 264.494 330.229 263.054 328.502C262.924 328.342 262.795 328.181 262.667 328.018C261.616 326.676 262.098 324.758 263.527 323.827C263.746 323.684 263.967 323.538 264.19 323.389C265.193 322.736 266.178 322.084 267.146 321.431C268.693 320.387 268.896 318.2 267.589 316.867L265.391 314.623C264.192 313.4 262.216 313.417 260.951 314.571C260.691 314.808 260.421 315.049 260.143 315.294C260.123 315.311 260.102 315.328 260.082 315.345C258.739 316.472 256.721 315.901 256.265 314.208C255.844 312.645 257.04 311.105 258.658 311.105H264.222C265.891 311.105 267.244 309.752 267.244 308.083V280.966C267.244 279.297 265.891 277.944 264.222 277.944H243.882H238.415H236.492C235.24 277.944 234.225 278.959 234.225 280.211V282.689C234.225 284.102 232.297 284.782 231.314 283.767C229.941 282.252 228.45 280.784 226.84 279.364C225.577 278.177 224.359 277.098 223.188 276.128C222.66 275.69 221.993 275.459 221.307 275.459H219.668H215.337C214.605 275.459 213.949 275.899 213.641 276.562C212.96 278.028 212.129 279.553 211.147 281.139C209.964 283.08 208.568 284.998 206.958 286.891C205.956 288.069 204.863 289.202 203.678 290.288C202.581 291.295 202.599 293.123 203.621 294.205C204.425 295.01 205.183 295.862 205.893 296.761C206.64 297.649 207.226 298.444 207.651 299.147ZM230.178 294.089C230.178 293.617 230.343 293.159 230.644 292.796C231.855 291.338 234.225 292.194 234.225 294.089V330.334C234.225 330.863 233.828 331.319 233.307 331.41C232.665 331.522 232.087 331.047 232.049 330.397L232.035 330.142C231.991 329.374 231.299 328.807 230.537 328.915C228.436 329.214 226.316 329.522 224.178 329.839C223.449 329.948 222.793 329.383 222.793 328.645C222.793 327.845 223.557 327.266 224.327 327.484L226.257 328.029C227.628 328.416 229.067 327.682 229.511 326.329C229.793 325.472 230.086 324.539 230.391 323.531C230.71 322.527 231.035 321.528 231.366 320.534C231.933 318.831 230.926 316.997 229.177 316.589L228.26 316.375C226.464 315.955 224.706 317.23 224.345 319.039C224.325 319.139 224.305 319.24 224.284 319.342C224.047 320.714 223.787 322.064 223.503 323.389C223.407 323.839 222.793 323.768 222.793 323.308V315.577C222.793 314.833 223.396 314.229 224.141 314.229H228.505C230.174 314.229 231.527 312.876 231.527 311.207V308.588C231.527 306.919 230.174 305.566 228.505 305.566H224.745C223.667 305.566 222.793 304.692 222.793 303.613C222.793 302.535 223.667 301.661 224.745 301.661H227.156C228.825 301.661 230.178 300.308 230.178 298.639V294.089ZM245.515 302.087C244.613 302.087 243.882 301.356 243.882 300.454C243.882 299.552 244.613 298.82 245.515 298.82H255.811C256.713 298.82 257.445 299.552 257.445 300.454C257.445 301.356 256.713 302.087 255.811 302.087H245.515ZM255.811 286.962C256.713 286.962 257.445 287.693 257.445 288.595C257.445 289.497 256.713 290.228 255.811 290.228H245.515C244.613 290.228 243.882 289.497 243.882 288.595C243.882 287.693 244.613 286.962 245.515 286.962H255.811ZM249.683 324.509C250.31 326.282 249.294 328.267 247.453 328.654C245.613 329.042 243.882 327.637 243.882 325.757V312.411C243.882 311.69 244.467 311.105 245.189 311.105C245.819 311.105 246.359 311.555 246.479 312.174C247.301 316.432 248.306 320.36 249.492 323.957C249.555 324.142 249.618 324.326 249.683 324.509Z" fill="#FFFFFF"/>
  <!-- 行 (small label, lower right) -->
  <path fill-rule="evenodd" clip-rule="evenodd" d="M334.649 282.386C334.649 280.717 333.296 279.364 331.628 279.364H303.09C301.421 279.364 300.068 280.717 300.068 282.386V286.142C300.068 287.81 301.421 289.163 303.09 289.163H331.628C333.296 289.163 334.649 287.811 334.649 286.142V282.386ZM316.542 311.925C316.542 310.256 315.189 308.904 313.521 308.904H300.108C298.439 308.904 297.086 307.551 297.086 305.882V302.126C297.086 300.457 298.439 299.104 300.108 299.104H333.403C335.072 299.104 336.424 300.457 336.424 302.126V305.882C336.424 307.551 335.072 308.904 333.403 308.904H330.144C328.475 308.904 327.122 310.256 327.122 311.925V331.342C327.122 333.946 326.815 336.005 326.199 337.52C325.631 339.035 324.448 340.194 322.649 340.999C320.945 341.757 318.909 342.23 316.542 342.419C314.894 342.551 313.085 342.637 311.115 342.677C309.591 342.708 308.312 341.565 307.968 340.081C307.773 339.237 307.53 338.336 307.24 337.378C307.065 336.75 306.886 336.15 306.701 335.577C306.183 333.961 307.39 332.202 309.086 332.265C310.364 332.312 311.524 332.336 312.566 332.336H314.838C315.501 332.336 315.95 332.241 316.187 332.052C316.424 331.863 316.542 331.531 316.542 331.058V311.925ZM292.885 282.649C294.176 281.13 293.566 278.825 291.725 278.062L287.718 276.402C286.393 275.853 284.871 276.319 283.977 277.442C283.15 278.481 282.194 279.571 281.109 280.713C279.358 282.56 277.464 284.358 275.429 286.11C274.307 287.049 273.193 287.916 272.086 288.711C270.723 289.69 270.435 291.682 271.381 293.069C272.091 294.11 272.778 295.175 273.44 296.264C274.361 297.712 276.317 298.193 277.686 297.159C279.196 296.018 280.716 294.773 282.245 293.424C284.707 291.294 287.05 289.045 289.275 286.678C290.553 285.32 291.757 283.977 292.885 282.649Z" fill="#FFFFFF"/>
  <path d="M274.461 319.688C275.072 320.543 276.244 320.782 277.039 320.093C278.203 319.084 280.115 319.844 280.115 321.384V339.895C280.115 341.563 281.468 342.916 283.137 342.916H287.461C289.129 342.916 290.482 341.563 290.482 339.895V306.72C290.482 306.051 290.706 305.401 291.11 304.868C291.185 304.77 291.26 304.671 291.334 304.572C293.061 302.324 294.63 300.088 296.043 297.862C297.037 296.297 296.305 294.244 294.575 293.579L290.488 292.01C289.096 291.475 287.529 292.041 286.728 293.3C285.512 295.211 284.136 297.122 282.6 299.033C280.47 301.637 278.198 304.099 275.784 306.418C274.375 307.771 272.958 309.014 271.532 310.148C270.053 311.325 269.827 313.568 271.001 315.05C271.009 315.06 271.018 315.071 271.026 315.081C271.925 316.217 272.778 317.353 273.582 318.49C273.902 318.916 274.195 319.315 274.461 319.688Z" fill="#FFFFFF"/>
  <defs>
    <radialGradient id="iconGradient" cx="0" cy="0" r="1" gradientUnits="userSpaceOnUse" gradientTransform="translate(203.808 203.808) rotate(90) scale(364.084)">
      <stop stop-color="#FF1E9E"/>
      <stop offset="0.769231" stop-color="#FF1E9E"/>
      <stop offset="1" stop-color="#FB0F95"/>
    </radialGradient>
  </defs>
</svg>
