<svg width="100%" height="100%" overflow="visible" style="display: block;" viewBox="0 0 22.6723 32.1939" fill="none" xmlns="http://www.w3.org/2000/svg">
<g id="Group">
<g id="Vector">
</g>
<path id="Vector_2" d="M21.1516 5.66828C24.282 11.0891 22.4244 18.0219 17.0034 21.15C12.3305 23.8474 6.53898 22.8398 3.02325 19.0419C2.82416 18.8205 2.72024 18.5296 2.73394 18.2321C2.74764 17.9346 2.87787 17.6545 3.09647 17.4523C3.31508 17.25 3.60449 17.142 3.90213 17.1515C4.19977 17.1609 4.48173 17.2871 4.68705 17.5028C6.08737 19.013 7.96008 20.0014 9.99699 20.3054C12.0339 20.6095 14.1136 20.211 15.8939 19.1757C17.6742 18.1403 19.049 16.5297 19.792 14.609C20.535 12.6882 20.6019 10.5717 19.9818 8.60784C19.3617 6.64396 18.0915 4.94971 16.3802 3.8039C14.6689 2.65809 12.6185 2.129 10.5664 2.30371C8.51437 2.47842 6.58293 3.34651 5.08996 4.76513C3.597 6.18374 2.63148 8.06835 2.35229 10.1088L3.80415 9.72912C4.99079 9.41971 5.86462 10.8285 5.05993 11.7544L2.50757 14.6864C1.86381 15.4254 0.620495 15.1738 0.363219 14.1832C-0.259608 11.7827 -0.0778279 9.24407 0.880683 6.95673C1.83919 4.6694 3.52152 2.75959 5.66968 1.52019C11.0906 -1.60902 18.0223 0.247422 21.1516 5.66828ZM11.3366 4.53492C11.6372 4.53492 11.9254 4.65433 12.138 4.86688C12.3505 5.07942 12.4699 5.3677 12.4699 5.66828V10.8659L15.538 13.9339C15.6462 14.0384 15.7326 14.1635 15.792 14.3018C15.8514 14.44 15.8826 14.5888 15.8839 14.7392C15.8853 14.8897 15.8566 15.039 15.7996 15.1783C15.7426 15.3175 15.6584 15.4441 15.552 15.5505C15.4456 15.6569 15.3191 15.7411 15.1798 15.7981C15.0405 15.855 14.8913 15.8837 14.7408 15.8824C14.5903 15.8811 14.4416 15.8498 14.3033 15.7904C14.165 15.731 14.0399 15.6447 13.9354 15.5365L10.5353 12.1364C10.3227 11.9239 10.2033 11.6356 10.2032 11.3351V5.66828C10.2032 5.3677 10.3226 5.07942 10.5351 4.86688C10.7477 4.65433 11.036 4.53492 11.3366 4.53492Z" fill="#9E1EFF"/>
</g>
</svg>
