<svg preserveAspectRatio="none" width="100%" height="100%" overflow="visible" style="display: block;" viewBox="0 0 312 62.8933" fill="none" xmlns="http://www.w3.org/2000/svg">
<g id="Group">
<path id="Vector" d="M1.63351 4.09776e-05H0V62.8933H1.63351V4.09776e-05Z" fill="var(--fill-0, black)"/>
<path id="Vector_2" d="M8.16761 0H6.5341V62.8933H8.16761V0Z" fill="var(--fill-0, black)"/>
<path id="Vector_3" d="M14.7016 0H9.80106V62.8933H14.7016V0Z" fill="var(--fill-0, black)"/>
<path id="Vector_4" d="M21.2356 0H16.335V62.8933H21.2356V0Z" fill="var(--fill-0, black)"/>
<path id="Vector_5" d="M24.5026 0H22.8691V62.8933H24.5026V0Z" fill="var(--fill-0, black)"/>
<path id="Vector_6" d="M27.7696 0H26.1361V62.8933H27.7696V0Z" fill="var(--fill-0, black)"/>
<path id="Vector_7" d="M31.0367 0H29.4032V62.8933H31.0367V0Z" fill="var(--fill-0, black)"/>
<path id="Vector_8" d="M34.3036 0H32.6701V62.8933H34.3036V0Z" fill="var(--fill-0, black)"/>
<path id="Vector_9" d="M44.1047 0H39.2042V62.8933H44.1047V0Z" fill="var(--fill-0, black)"/>
<path id="Vector_10" d="M50.6388 0H45.7382V62.8933H50.6388V0Z" fill="var(--fill-0, black)"/>
<path id="Vector_11" d="M57.1728 0H52.2723V62.8933H57.1728V0Z" fill="var(--fill-0, black)"/>
<path id="Vector_12" d="M60.4398 0H58.8063V62.8933H60.4398V0Z" fill="var(--fill-0, black)"/>
<path id="Vector_13" d="M66.9738 0H62.0733V62.8933H66.9738V0Z" fill="var(--fill-0, black)"/>
<path id="Vector_14" d="M70.2408 0H68.6073V62.8933H70.2408V0Z" fill="var(--fill-0, black)"/>
<path id="Vector_15" d="M76.7749 0H75.1414V62.8933H76.7749V0Z" fill="var(--fill-0, black)"/>
<path id="Vector_16" d="M83.3089 0H78.4084V62.8933H83.3089V0Z" fill="var(--fill-0, black)"/>
<path id="Vector_17" d="M86.5759 0H84.9424V62.8933H86.5759V0Z" fill="var(--fill-0, black)"/>
<path id="Vector_18" d="M93.11 0H88.2095V62.8933H93.11V0Z" fill="var(--fill-0, black)"/>
<path id="Vector_19" d="M96.3769 0H94.7434V62.8933H96.3769V0Z" fill="var(--fill-0, black)"/>
<path id="Vector_20" d="M102.911 0H101.277V62.8933H102.911V0Z" fill="var(--fill-0, black)"/>
<path id="Vector_21" d="M106.178 0H104.545V62.8933H106.178V0Z" fill="var(--fill-0, black)"/>
<path id="Vector_22" d="M109.445 0H107.811V62.8933H109.445V0Z" fill="var(--fill-0, black)"/>
<path id="Vector_23" d="M112.712 0H111.079V62.8933H112.712V0Z" fill="var(--fill-0, black)"/>
<path id="Vector_24" d="M122.513 0H117.613V62.8933H122.513V0Z" fill="var(--fill-0, black)"/>
<path id="Vector_25" d="M129.047 0H124.147V62.8933H129.047V0Z" fill="var(--fill-0, black)"/>
<path id="Vector_26" d="M132.314 0H130.681V62.8933H132.314V0Z" fill="var(--fill-0, black)"/>
<path id="Vector_27" d="M138.848 0H133.948V62.8933H138.848V0Z" fill="var(--fill-0, black)"/>
<path id="Vector_28" d="M142.115 0H140.482V62.8933H142.115V0Z" fill="var(--fill-0, black)"/>
<path id="Vector_29" d="M145.382 0H143.749V62.8933H145.382V0Z" fill="var(--fill-0, black)"/>
<path id="Vector_30" d="M155.183 0H150.283V62.8933H155.183V0Z" fill="var(--fill-0, black)"/>
<path id="Vector_31" d="M161.717 0H156.817V62.8933H161.717V0Z" fill="var(--fill-0, black)"/>
<path id="Vector_32" d="M164.984 0H163.351V62.8933H164.984V0Z" fill="var(--fill-0, black)"/>
<path id="Vector_33" d="M171.518 0H166.618V62.8933H171.518V0Z" fill="var(--fill-0, black)"/>
<path id="Vector_34" d="M178.052 0H176.419V62.8933H178.052V0Z" fill="var(--fill-0, black)"/>
<path id="Vector_35" d="M181.319 0H179.686V62.8933H181.319V0Z" fill="var(--fill-0, black)"/>
<path id="Vector_36" d="M187.853 0H182.953V62.8933H187.853V0Z" fill="var(--fill-0, black)"/>
<path id="Vector_37" d="M194.387 0H192.754V62.8933H194.387V0Z" fill="var(--fill-0, black)"/>
<path id="Vector_38" d="M197.654 0H196.021V62.8933H197.654V0Z" fill="var(--fill-0, black)"/>
<path id="Vector_39" d="M204.189 0H199.288V62.8933H204.189V0Z" fill="var(--fill-0, black)"/>
<path id="Vector_40" d="M207.455 0H205.822V62.8933H207.455V0Z" fill="var(--fill-0, black)"/>
<path id="Vector_41" d="M213.99 0H209.089V62.8933H213.99V0Z" fill="var(--fill-0, black)"/>
<path id="Vector_42" d="M220.524 0H215.623V62.8933H220.524V0Z" fill="var(--fill-0, black)"/>
<path id="Vector_43" d="M223.791 0H222.157V62.8933H223.791V0Z" fill="var(--fill-0, black)"/>
<path id="Vector_44" d="M230.325 0H228.691V62.8933H230.325V0Z" fill="var(--fill-0, black)"/>
<path id="Vector_45" d="M233.592 0H231.958V62.8933H233.592V0Z" fill="var(--fill-0, black)"/>
<path id="Vector_46" d="M240.126 0H235.225V62.8933H240.126V0Z" fill="var(--fill-0, black)"/>
<path id="Vector_47" d="M243.393 0H241.759V62.8933H243.393V0Z" fill="var(--fill-0, black)"/>
<path id="Vector_48" d="M249.927 0H245.026V62.8933H249.927V0Z" fill="var(--fill-0, black)"/>
<path id="Vector_49" d="M253.194 0H251.56V62.8933H253.194V0Z" fill="var(--fill-0, black)"/>
<path id="Vector_50" d="M259.728 0H258.094V62.8933H259.728V0Z" fill="var(--fill-0, black)"/>
<path id="Vector_51" d="M266.262 0H261.361V62.8933H266.262V0Z" fill="var(--fill-0, black)"/>
<path id="Vector_52" d="M272.796 0H267.895V62.8933H272.796V0Z" fill="var(--fill-0, black)"/>
<path id="Vector_53" d="M276.063 0H274.429V62.8933H276.063V0Z" fill="var(--fill-0, black)"/>
<path id="Vector_54" d="M279.33 0H277.696V62.8933H279.33V0Z" fill="var(--fill-0, black)"/>
<path id="Vector_55" d="M285.864 0H284.23V62.8933H285.864V0Z" fill="var(--fill-0, black)"/>
<path id="Vector_56" d="M289.131 0H287.497V62.8933H289.131V0Z" fill="var(--fill-0, black)"/>
<path id="Vector_57" d="M295.665 0H294.031V62.8933H295.665V0Z" fill="var(--fill-0, black)"/>
<path id="Vector_58" d="M302.199 0H297.298V62.8933H302.199V0Z" fill="var(--fill-0, black)"/>
<path id="Vector_59" d="M308.733 0H303.832V62.8933H308.733V0Z" fill="var(--fill-0, black)"/>
<path id="Vector_60" d="M312 0H310.366V62.8933H312V0Z" fill="var(--fill-0, black)"/>
</g>
</svg>
