<svg preserveAspectRatio="none" width="100%" height="100%" overflow="visible" style="display: block;" viewBox="0 0 110.056 28.9121" fill="none" xmlns="http://www.w3.org/2000/svg">
<g id="Frame 30">
<g id="Frame 27">
<path id="Vector" d="M100.021 22.329C100.089 22.1563 100.075 21.9638 100.006 21.7913L96.304 12.5748C96.0831 12.0249 96.488 11.426 97.0806 11.426H99.1125C99.4775 11.426 99.8004 11.6625 99.9105 12.0106L101.163 15.9731C101.411 16.7555 102.519 16.7516 102.761 15.9675L103.98 12.0162C104.088 11.6653 104.412 11.426 104.78 11.426H106.815C107.408 11.426 107.813 12.0264 107.591 12.5765L103.133 23.6062C102.281 25.7192 100.577 26.6928 98.6193 26.6928C98.0511 26.6928 97.4706 26.5886 96.9053 26.3847C96.556 26.2588 96.3728 25.8884 96.4363 25.5226L96.6211 24.4566C96.7144 23.9187 97.2953 23.6301 97.8393 23.6751C97.9081 23.6808 97.9764 23.6837 98.044 23.6837C98.9124 23.6837 99.6609 23.2321 100.021 22.329Z" fill="#111111"/>
<path id="Vector_2" d="M89.8253 22.2676C87.5795 22.2676 85.8647 21.0507 85.8647 19.0372C85.8647 16.9242 87.9446 15.652 90.3563 15.652C91.0399 15.652 91.6881 15.7319 92.277 15.8757C92.3797 15.9008 92.4804 15.8241 92.4804 15.7184C92.4804 14.8887 91.7502 14.2802 90.489 14.2802C89.7814 14.2802 89.1412 14.5207 88.6253 14.8654C88.2159 15.1389 87.6441 15.1529 87.3087 14.7924L86.5306 13.9563C86.2352 13.6387 86.2285 13.1441 86.5543 12.8577C87.4645 12.0574 88.9111 11.2047 90.7877 11.2047C94.0181 11.2047 95.9652 12.9084 95.9652 15.7405V21.2094C95.9652 21.6717 95.5905 22.0464 95.1282 22.0464H92.9268C92.778 22.0464 92.6574 21.9258 92.6574 21.777C92.6574 21.5174 92.2901 21.3797 92.0837 21.5371C91.5123 21.9726 90.7283 22.2676 89.8253 22.2676ZM89.2057 18.8271C89.2057 19.4576 89.781 19.8891 90.5886 19.8891C91.4696 19.8891 92.1908 19.3942 92.411 18.5813C92.4977 18.2613 92.2843 17.9511 91.9609 17.8777C91.6488 17.8069 91.2956 17.765 90.9758 17.765C89.8916 17.765 89.2057 18.1412 89.2057 18.8271Z" fill="#111111"/>
<path id="Vector_3" d="M74.9317 26.4715C74.4694 26.4715 74.0947 26.0968 74.0947 25.6346V12.2629C74.0947 11.8007 74.4694 11.426 74.9317 11.426H77.0668C77.2385 11.426 77.3822 11.5562 77.3992 11.7271C77.4287 12.0251 77.8265 12.1526 78.0651 11.9716C78.6783 11.5065 79.5261 11.2047 80.6993 11.2047C83.6973 11.2047 85.6555 13.5722 85.6555 16.7583C85.6555 19.9223 83.6973 22.2676 80.6993 22.2676C80.2168 22.2676 79.7536 22.2141 79.3294 22.1164C78.6098 21.9506 77.5795 22.493 77.5795 23.2315V25.6346C77.5795 26.0968 77.2048 26.4715 76.7426 26.4715H74.9317ZM79.8032 14.3244C78.4978 14.3244 77.5353 15.309 77.5353 16.7362C77.5353 18.1522 78.4978 19.1479 79.8032 19.1479C81.1307 19.1479 82.1485 18.1522 82.1485 16.7362C82.1485 15.2648 81.1418 14.3244 79.8032 14.3244Z" fill="#111111"/>
<path id="Vector_4" d="M63.8678 22.3782C61.8654 22.3782 59.9404 20.9733 59.9404 18.4398V12.2629C59.9404 11.8007 60.3152 11.426 60.7774 11.426H62.5883C63.0506 11.426 63.4253 11.8007 63.4253 12.2629V17.4442C63.4253 18.6279 64.3656 19.1921 65.2064 19.1921C66.0804 19.1921 66.9765 18.6279 66.9765 17.4442V12.2629C66.9765 11.8007 67.3512 11.426 67.8134 11.426H69.6243C70.0866 11.426 70.4613 11.8007 70.4613 12.2629V21.2094C70.4613 21.6717 70.0866 22.0464 69.6243 22.0464H67.5363C67.3814 22.0464 67.2513 21.9298 67.2344 21.7758C67.2047 21.5058 66.8417 21.3917 66.6262 21.5571C65.8742 22.1341 64.8605 22.3782 63.8678 22.3782Z" fill="#111111"/>
<path id="Vector_5" d="M56.7664 10.0652C55.649 10.0652 54.8635 9.29081 54.8635 8.1624C54.8635 7.03398 55.6379 6.24851 56.7664 6.24851C57.8948 6.24851 58.6913 7.02292 58.6913 8.1624C58.6913 9.29081 57.8948 10.0652 56.7664 10.0652ZM52.4187 26.4337C52.1048 26.3292 51.943 26.005 51.9775 25.676L52.1041 24.4683C52.1585 23.9498 52.6669 23.6263 53.1848 23.6853C53.2995 23.6984 53.4133 23.7058 53.5249 23.7058C54.2883 23.7058 54.9299 23.3628 54.9299 22.1681V12.2629C54.9299 11.8007 55.3046 11.426 55.7669 11.426H57.5778C58.04 11.426 58.4147 11.8007 58.4147 12.2629V22.4225C58.4147 25.332 56.4013 26.6928 54.2883 26.6928C53.4546 26.6928 52.8423 26.5747 52.4187 26.4337Z" fill="#111111"/>
<path id="Vector_6" d="M46.8107 22.3782C44.8083 22.3782 42.8833 20.9733 42.8833 18.4398V12.2629C42.8833 11.8007 43.2581 11.426 43.7203 11.426H45.5312C45.9935 11.426 46.3682 11.8007 46.3682 12.2629V17.4442C46.3682 18.6279 47.3085 19.1921 48.1493 19.1921C49.0233 19.1921 49.9194 18.6279 49.9194 17.4442V12.2629C49.9194 11.8007 50.2941 11.426 50.7563 11.426H52.5672C53.0295 11.426 53.4042 11.8007 53.4042 12.2629V21.2094C53.4042 21.6717 53.0295 22.0464 52.5672 22.0464H50.4792C50.3243 22.0464 50.1942 21.9298 50.1773 21.7758C50.1476 21.5058 49.7846 21.3917 49.5691 21.5571C48.8171 22.1341 47.8034 22.3782 46.8107 22.3782Z" fill="#111111"/>
<path id="Vector_7" d="M35.2855 15.1061C35.2855 14.6439 34.9108 14.2692 34.4486 14.2692H34.3745C33.9123 14.2692 33.5376 13.8944 33.5376 13.4322V12.2629C33.5376 11.8007 33.9123 11.426 34.3745 11.426H34.4486C34.9108 11.426 35.2855 11.0513 35.2855 10.589V10.4967C35.2855 8.29518 36.6795 6.24854 39.932 6.24854C40.4921 6.24854 40.9734 6.29917 41.5124 6.42049C41.9125 6.51054 42.1614 6.90118 42.1089 7.30792L41.9775 8.32742C41.9062 8.88094 41.3085 9.22713 40.7522 9.18195C40.6493 9.17359 40.5451 9.16915 40.4409 9.16915C39.5448 9.16915 38.6487 9.52316 38.6487 10.6958C38.6487 11.0991 38.9756 11.426 39.3788 11.426H40.7545C41.2167 11.426 41.5914 11.8007 41.5914 12.2629V13.4322C41.5914 13.8944 41.2167 14.2692 40.7545 14.2692H39.6073C39.1451 14.2692 38.7704 14.6439 38.7704 15.1061V21.2094C38.7704 21.6717 38.3957 22.0464 37.9334 22.0464H36.1225C35.6602 22.0464 35.2855 21.6717 35.2855 21.2094V15.1061Z" fill="#111111"/>
</g>
<path id="Union" d="M0.735352 10.5986C8.6679 10.9617 11.5379 11.3804 12.7344 15.1738C12.934 15.8069 12.4285 16.4188 11.7646 16.4189C11.1832 16.4189 10.7119 16.8902 10.7119 17.4717V26.6279C10.7119 27.8894 9.68914 28.9119 8.42773 28.9121H5.8623C4.60079 28.912 3.57812 27.8895 3.57812 26.6279V18.208C3.57812 17.2199 2.77715 16.4189 1.78906 16.4189C0.801136 16.4189 0.000238906 15.6178 0 14.6299V11.334C2.18415e-05 10.9278 0.329219 10.5988 0.735352 10.5986ZM18.5059 10.2373C21.5388 9.42918 24.4457 10.4562 24.999 12.5312C25.5521 14.6066 23.5418 16.9444 20.5088 17.7529C17.4755 18.5613 14.5678 17.5344 14.0146 15.459C13.4616 13.3836 15.4726 11.0457 18.5059 10.2373ZM13.0898 0C13.593 8.80338e-06 14.0656 0.0201004 14.5303 0.0634766C16.4103 0.239265 17.5548 2.09979 17.3135 3.97266C17.1492 5.24702 15.768 6.04481 14.4844 5.98633C14.3673 5.98098 14.2493 5.97853 14.1318 5.97852C12.7031 5.97852 11.2747 6.41835 10.7129 7.74707C10.4028 8.48045 10.0495 9.26179 9.2959 9.51855C8.24613 9.87595 6.92486 10.0939 5.25586 10.249C4.34887 10.3332 3.57821 9.60719 3.57812 8.69629C3.57813 4.1897 6.43187 0 13.0898 0ZM17.8555 5.32617C18.3334 3.91659 20.391 3.3405 22.4512 4.03906C24.5111 4.73757 25.794 6.44598 25.3164 7.85547C24.8385 9.26496 22.7807 9.84191 20.7207 9.14355C18.6606 8.44501 17.3776 6.73572 17.8555 5.32617Z" fill="#FF1E9E"/>
</g>
</svg>
