<svg preserveAspectRatio="none" width="100%" height="100%" overflow="visible" style="display: block;" viewBox="0 0 192.437 51.617" fill="none" xmlns="http://www.w3.org/2000/svg">
<g id="Frame 45">
<path id="&#233;&#138;&#128;&#232;&#161;&#140;" d="M139.468 21.4806C139.342 21.4806 139.273 21.3315 139.354 21.2339C140.176 20.2471 140.885 19.2911 141.482 18.3659C141.603 18.1779 141.867 18.1495 142.02 18.3129C142.138 18.439 142.257 18.5698 142.376 18.7051C142.993 19.3836 143.568 20.0826 144.103 20.8022C144.323 21.0799 144.122 21.4806 143.768 21.4806H139.468ZM136.509 24.0897C136.513 24.0961 136.522 24.0974 136.527 24.0925C136.535 24.0857 136.547 24.0913 136.547 24.1016V24.835C136.547 25.0263 136.702 25.1813 136.894 25.1813H138.382C138.851 25.1813 139.23 25.561 139.23 26.0294C139.23 26.4978 138.851 26.8775 138.382 26.8775H136.657C135.932 26.8775 135.345 27.465 135.345 28.1897V29.3275C135.345 30.0523 135.932 30.6398 136.657 30.6398H138.825C139.049 30.6398 139.23 30.8212 139.23 31.0449V34.0582C139.23 34.2334 138.932 34.2641 138.891 34.0938C138.785 33.6037 138.673 33.1329 138.555 32.6814C138.378 32.0015 137.677 31.6123 136.997 31.7897L136.662 31.8769C135.954 32.0616 135.536 32.7891 135.7 33.502C135.802 33.9486 135.9 34.4131 135.992 34.8956C136.064 35.2604 136.124 35.6084 136.174 35.9396C136.286 36.6812 137.017 37.1977 137.738 36.9916L138.369 36.8113C138.801 36.688 139.23 37.012 139.23 37.4608C139.23 37.798 138.982 38.0836 138.648 38.1299L138.398 38.1645C137.636 38.2582 136.922 38.3453 136.254 38.4256C135.485 38.5181 134.961 39.2506 135.124 40.0072L135.42 41.3813C135.568 42.0664 136.228 42.5146 136.919 42.4008C137.666 42.2778 138.447 42.1507 139.261 42.0194C140.556 41.8138 141.883 41.5979 143.239 41.3717C144.018 41.244 144.786 41.1162 145.545 40.9884C146.093 40.8961 146.622 41.2345 146.766 41.771C146.916 42.3249 147.473 42.665 148.033 42.5415C149.089 42.3087 150.215 42.0524 151.412 41.7726C152.839 41.4575 154.233 41.134 155.594 40.8022C155.848 40.7402 156.015 40.4943 155.987 40.2343C155.923 39.6592 156.839 39.3304 157.179 39.799C157.973 40.8579 158.932 41.7636 160.057 42.5158C160.661 42.92 161.464 42.6678 161.873 42.0662C161.911 42.0101 161.95 41.9533 161.989 41.896C162.318 41.4231 162.668 40.9606 163.038 40.5083C163.483 39.9889 163.347 39.1318 162.77 38.765C161.929 38.2307 161.196 37.5885 160.571 36.8384C160.514 36.7691 160.458 36.6991 160.403 36.6284C159.946 36.0454 160.156 35.2126 160.776 34.8081C160.871 34.746 160.967 34.6827 161.064 34.618C161.5 34.3345 161.928 34.051 162.348 33.7675C163.02 33.3144 163.108 32.3643 162.541 31.7853L161.586 30.8109C161.065 30.2795 160.207 30.2871 159.657 30.7883C159.544 30.8913 159.427 30.996 159.307 31.1024C159.298 31.1098 159.289 31.1171 159.28 31.1245C158.697 31.6139 157.82 31.3658 157.622 30.6304C157.44 29.952 157.959 29.2829 158.661 29.2829H161.078C161.803 29.2829 162.39 28.6954 162.39 27.9706V16.1934C162.39 15.4687 161.803 14.8811 161.078 14.8811H152.244H149.87H149.035C148.491 14.8811 148.05 15.3219 148.05 15.8655V16.9416C148.05 17.5555 147.213 17.851 146.786 17.4099C146.19 16.752 145.542 16.1147 144.843 15.4979C144.294 14.9823 143.766 14.5138 143.257 14.0925C143.028 13.9023 142.738 13.8018 142.44 13.8018H141.728H139.847C139.529 13.8018 139.244 13.9929 139.111 14.281C138.815 14.9175 138.454 15.5801 138.028 16.2689C137.514 17.1118 136.907 17.9445 136.208 18.7668C135.773 19.2786 135.298 19.7704 134.784 20.2423C134.307 20.6793 134.315 21.4732 134.759 21.9432C135.108 22.2927 135.437 22.6628 135.746 23.0534C136.07 23.4389 136.325 23.7843 136.509 24.0897ZM146.292 21.8928C146.292 21.6877 146.364 21.4891 146.495 21.3313C147.021 20.6983 148.05 21.07 148.05 21.8928V37.6343C148.05 37.8641 147.878 38.062 147.651 38.1016C147.373 38.1503 147.122 37.9438 147.105 37.6614L147.099 37.551C147.08 37.2172 146.78 36.9709 146.448 37.018C145.536 37.1478 144.615 37.2816 143.687 37.4194C143.37 37.4664 143.085 37.2211 143.085 36.9007C143.085 36.5532 143.417 36.302 143.752 36.3964L144.59 36.6331C145.185 36.8011 145.81 36.4826 146.003 35.895C146.125 35.5227 146.253 35.1176 146.385 34.6797C146.524 34.2435 146.665 33.8096 146.809 33.3782C147.055 32.6383 146.617 31.8421 145.858 31.6647L145.46 31.5716C144.68 31.3893 143.916 31.9433 143.76 32.7288C143.751 32.7723 143.742 32.8161 143.733 32.8602C143.63 33.4564 143.517 34.0424 143.394 34.618C143.352 34.8133 143.085 34.7824 143.085 34.5827V31.2254C143.085 30.902 143.347 30.6398 143.671 30.6398H145.566C146.291 30.6398 146.878 30.0523 146.878 29.3275V28.1898C146.878 27.465 146.291 26.8775 145.566 26.8775H143.933C143.465 26.8775 143.085 26.4978 143.085 26.0294C143.085 25.561 143.465 25.1813 143.933 25.1813H144.98C145.705 25.1813 146.292 24.5938 146.292 23.869V21.8928ZM152.954 25.3663C152.562 25.3663 152.244 25.0488 152.244 24.6571C152.244 24.2653 152.562 23.9478 152.954 23.9478H157.425C157.817 23.9478 158.135 24.2653 158.135 24.6571C158.135 25.0488 157.817 25.3663 157.425 25.3663H152.954ZM157.425 18.7977C157.817 18.7977 158.135 19.1152 158.135 19.507C158.135 19.8987 157.817 20.2163 157.425 20.2163H152.954C152.562 20.2163 152.244 19.8987 152.244 19.507C152.244 19.1152 152.562 18.7977 152.954 18.7977H157.425ZM154.764 35.1043C155.036 35.8746 154.595 36.7364 153.795 36.9047C152.996 37.073 152.244 36.4631 152.244 35.6462V29.8503C152.244 29.5369 152.498 29.2829 152.812 29.2829C153.086 29.2829 153.32 29.4786 153.372 29.7475C153.729 31.5966 154.166 33.3024 154.681 34.8647C154.708 34.945 154.736 35.0249 154.764 35.1043Z" fill="var(--fill-0, #111111)"/>
<g id="&#233;&#138;&#128;&#232;&#161;&#140;_2">
<path fill-rule="evenodd" clip-rule="evenodd" d="M191.666 16.8102C191.666 16.0854 191.078 15.4979 190.353 15.4979H177.959C177.235 15.4979 176.647 16.0854 176.647 16.8102V18.4414C176.647 19.1661 177.235 19.7537 177.959 19.7537H190.353C191.078 19.7537 191.666 19.1661 191.666 18.4414V16.8102ZM183.802 29.6392C183.802 28.9144 183.214 28.3269 182.489 28.3269H176.664C175.939 28.3269 175.352 27.7394 175.352 27.0146V25.3834C175.352 24.6587 175.939 24.0711 176.664 24.0711H191.124C191.849 24.0711 192.437 24.6586 192.437 25.3834V27.0146C192.437 27.7394 191.849 28.3269 191.124 28.3269H189.709C188.984 28.3269 188.397 28.9144 188.397 29.6392V38.072C188.397 39.2027 188.263 40.0971 187.996 40.755C187.749 41.4129 187.235 41.9166 186.454 42.2661C185.714 42.595 184.83 42.8006 183.802 42.8829C183.086 42.9401 182.3 42.9775 181.444 42.9948C180.783 43.0083 180.227 42.5119 180.078 41.8671C179.993 41.5009 179.888 41.1097 179.762 40.6933C179.686 40.4209 179.608 40.1602 179.528 39.9112C179.303 39.2094 179.827 38.4456 180.564 38.4729C181.119 38.4934 181.622 38.5037 182.075 38.5037H183.061C183.349 38.5037 183.545 38.4626 183.647 38.3804C183.75 38.2981 183.802 38.1542 183.802 37.9486V29.6392ZM173.527 16.9244C174.088 16.2647 173.823 15.2637 173.023 14.9324L171.283 14.2116C170.708 13.973 170.047 14.1753 169.658 14.663C169.299 15.1142 168.884 15.5878 168.413 16.0838C167.652 16.8856 166.83 17.6669 165.946 18.4276C165.459 18.8353 164.975 19.2118 164.494 19.5571C163.902 19.9825 163.777 20.8473 164.188 21.4498C164.496 21.9021 164.795 22.3647 165.082 22.8376C165.482 23.4662 166.332 23.6751 166.926 23.226C167.582 22.7307 168.242 22.1901 168.906 21.604C169.976 20.6788 170.993 19.7023 171.959 18.6743C172.515 18.0845 173.037 17.5012 173.527 16.9244Z" fill="var(--fill-0, #111111)"/>
<path d="M165.526 33.0104C165.791 33.3821 166.3 33.4856 166.645 33.1864C167.151 32.7483 167.981 33.0785 167.981 33.7473V41.7864C167.981 42.5112 168.569 43.0987 169.294 43.0987H171.171C171.896 43.0987 172.484 42.5112 172.484 41.7864V27.3788C172.484 27.088 172.581 26.8059 172.757 26.5743C172.789 26.5315 172.821 26.4887 172.854 26.4457C173.604 25.4695 174.285 24.4982 174.899 23.5317C175.33 22.8521 175.013 21.9602 174.261 21.6716L172.486 20.99C171.882 20.7578 171.201 21.0036 170.853 21.5502C170.325 22.3802 169.728 23.2102 169.061 24.0403C168.135 25.171 167.149 26.2401 166.1 27.2475C165.488 27.8348 164.873 28.3748 164.254 28.8675C163.611 29.3786 163.513 30.3529 164.023 30.9961C164.027 31.0007 164.03 31.0053 164.034 31.0099C164.424 31.5033 164.795 31.9967 165.144 32.4901C165.283 32.6751 165.41 32.8485 165.526 33.0104Z" fill="var(--fill-0, #111111)"/>
</g>
<g id="Frame 29" filter="url(#filter0_i_0_66)">
<path d="M0 24.0545C0 15.6346 0 11.4247 1.63862 8.20874C3.07998 5.3799 5.3799 3.07998 8.20874 1.63862C11.4247 0 15.6346 0 24.0545 0H27.5624C35.9823 0 40.1923 0 43.4082 1.63862C46.2371 3.07998 48.537 5.3799 49.9784 8.20874C51.617 11.4247 51.617 15.6346 51.617 24.0545V27.5624C51.617 35.9823 51.617 40.1923 49.9784 43.4082C48.537 46.2371 46.2371 48.537 43.4082 49.9784C40.1923 51.617 35.9823 51.617 27.5625 51.617H24.0545C15.6346 51.617 11.4247 51.617 8.20874 49.9784C5.3799 48.537 3.07998 46.2371 1.63862 43.4082C0 40.1923 0 35.9823 0 27.5625V24.0545Z" fill="url(#paint0_radial_0_66)"/>
<path id="&#233;&#138;&#128;&#232;&#161;&#140;_3" d="M26.7133 37.5746C26.6762 37.5746 26.6561 37.531 26.6798 37.5025C26.9202 37.214 27.1276 36.9344 27.302 36.6639C27.3374 36.609 27.4147 36.6007 27.4594 36.6484C27.4938 36.6853 27.5285 36.7235 27.5634 36.7631C27.7438 36.9615 27.9121 37.1659 28.0684 37.3763C28.1329 37.4574 28.074 37.5746 27.9704 37.5746H26.7133ZM25.8481 38.3375C25.8492 38.3393 25.8518 38.3397 25.8534 38.3383C25.8557 38.3363 25.8593 38.3379 25.8593 38.341V38.5554C25.8593 38.6113 25.9046 38.6566 25.9605 38.6566H26.3958C26.5327 38.6566 26.6437 38.7677 26.6437 38.9046C26.6437 39.0415 26.5327 39.1526 26.3958 39.1526H25.8913C25.6794 39.1526 25.5076 39.3243 25.5076 39.5362V39.8689C25.5076 40.0808 25.6794 40.2526 25.8913 40.2526H26.5253C26.5907 40.2526 26.6437 40.3056 26.6437 40.371V41.2521C26.6437 41.3033 26.5565 41.3123 26.5445 41.2625C26.5134 41.1192 26.4806 40.9815 26.4463 40.8495C26.3945 40.6507 26.1894 40.5369 25.9907 40.5888L25.8928 40.6143C25.6859 40.6683 25.5635 40.881 25.6114 41.0895C25.6415 41.22 25.67 41.3559 25.697 41.4969C25.7178 41.6036 25.7356 41.7053 25.7502 41.8022C25.7829 42.019 25.9966 42.17 26.2075 42.1098L26.392 42.057C26.5181 42.021 26.6437 42.1157 26.6437 42.2469C26.6437 42.3455 26.571 42.429 26.4733 42.4426L26.4003 42.4527C26.1776 42.4801 25.9687 42.5055 25.7734 42.529C25.5487 42.5561 25.3955 42.7703 25.4432 42.9915L25.5297 43.3932C25.5729 43.5935 25.7658 43.7246 25.9679 43.6913C26.1864 43.6554 26.4147 43.6182 26.6527 43.5798C27.0315 43.5197 27.4192 43.4566 27.8159 43.3904C28.0435 43.3531 28.2682 43.3157 28.49 43.2783C28.6502 43.2514 28.8048 43.3503 28.8471 43.5072C28.8907 43.6691 29.0536 43.7686 29.2174 43.7324C29.5261 43.6644 29.8554 43.5895 30.2054 43.5077C30.6227 43.4155 31.0303 43.3209 31.428 43.2239C31.5024 43.2058 31.5514 43.1339 31.543 43.0579C31.5243 42.8897 31.7922 42.7936 31.8915 42.9306C32.1237 43.2402 32.4042 43.505 32.733 43.7249C32.9097 43.8431 33.1446 43.7694 33.2639 43.5935C33.275 43.5771 33.2864 43.5605 33.2981 43.5437C33.3943 43.4055 33.4965 43.2702 33.6047 43.138C33.7348 42.9861 33.6951 42.7355 33.5263 42.6283C33.2804 42.4721 33.0661 42.2843 32.8833 42.065C32.8667 42.0447 32.8504 42.0242 32.8342 42.0036C32.7007 41.8331 32.762 41.5896 32.9433 41.4713C32.9712 41.4532 32.9992 41.4347 33.0276 41.4158C33.1549 41.3329 33.28 41.25 33.4029 41.1671C33.5994 41.0346 33.6251 40.7568 33.4592 40.5875L33.1801 40.3026C33.0279 40.1473 32.7769 40.1495 32.6162 40.296C32.5832 40.3261 32.549 40.3567 32.5136 40.3879C32.5111 40.39 32.5085 40.3922 32.5059 40.3943C32.3353 40.5374 32.0791 40.4649 32.0212 40.2499C31.9678 40.0515 32.1196 39.8559 32.325 39.8559H33.0316C33.2435 39.8559 33.4153 39.6841 33.4153 39.4722V36.0287C33.4153 35.8168 33.2435 35.645 33.0316 35.645H30.4488H29.7545H29.5104C29.3514 35.645 29.2225 35.7739 29.2225 35.9329V36.2475C29.2225 36.427 28.9777 36.5134 28.8528 36.3844C28.6785 36.1921 28.4892 36.0057 28.2848 35.8254C28.1243 35.6746 27.9697 35.5377 27.8211 35.4144C27.754 35.3588 27.6693 35.3294 27.5821 35.3294H27.3741H26.8241C26.7312 35.3294 26.6478 35.3853 26.6087 35.4696C26.5223 35.6557 26.4167 35.8494 26.2921 36.0508C26.1418 36.2972 25.9645 36.5407 25.7601 36.7811C25.6329 36.9308 25.4941 37.0746 25.3436 37.2126C25.2043 37.3403 25.2065 37.5725 25.3363 37.7099C25.4385 37.8121 25.5347 37.9203 25.6248 38.0345C25.7197 38.1472 25.7942 38.2482 25.8481 38.3375ZM28.7086 37.6951C28.7086 37.6352 28.7295 37.5771 28.7678 37.531C28.9215 37.3459 29.2225 37.4546 29.2225 37.6951V42.2977C29.2225 42.3649 29.1721 42.4227 29.1059 42.4343C29.0244 42.4485 28.951 42.3882 28.9462 42.3056L28.9444 42.2733C28.9388 42.1757 28.851 42.1037 28.7542 42.1175C28.4874 42.1554 28.2182 42.1946 27.9468 42.2348C27.8541 42.2486 27.7708 42.1768 27.7708 42.0832C27.7708 41.9816 27.8679 41.9081 27.9657 41.9357L28.2108 42.0049C28.3848 42.0541 28.5675 41.9609 28.6239 41.7891C28.6597 41.6803 28.6969 41.5618 28.7356 41.4338C28.7762 41.3063 28.8175 41.1794 28.8595 41.0533C28.9315 40.8369 28.8036 40.6041 28.5816 40.5523L28.4651 40.525C28.237 40.4717 28.0137 40.6337 27.968 40.8634C27.9654 40.8761 27.9628 40.8889 27.9602 40.9018C27.9301 41.0761 27.8971 41.2475 27.861 41.4158C27.8488 41.4729 27.7708 41.4638 27.7708 41.4054V40.4238C27.7708 40.3293 27.8475 40.2526 27.942 40.2526H28.4962C28.7081 40.2526 28.8799 40.0808 28.8799 39.8689V39.5362C28.8799 39.3243 28.7081 39.1526 28.4962 39.1526H28.0188C27.8818 39.1526 27.7708 39.0415 27.7708 38.9046C27.7708 38.7677 27.8818 38.6566 28.0188 38.6566H28.3249C28.5368 38.6566 28.7086 38.4848 28.7086 38.2729V37.6951ZM30.6562 38.7107C30.5417 38.7107 30.4488 38.6179 30.4488 38.5033C30.4488 38.3888 30.5417 38.296 30.6562 38.296H31.9636C32.0782 38.296 32.171 38.3888 32.171 38.5033C32.171 38.6179 32.0782 38.7107 31.9636 38.7107H30.6562ZM31.9636 36.7902C32.0782 36.7902 32.171 36.883 32.171 36.9976C32.171 37.1121 32.0782 37.2049 31.9636 37.2049H30.6562C30.5417 37.2049 30.4488 37.1121 30.4488 36.9976C30.4488 36.883 30.5417 36.7902 30.6562 36.7902H31.9636ZM31.1854 41.5579C31.265 41.7832 31.136 42.0351 30.9023 42.0843C30.6686 42.1335 30.4488 41.9552 30.4488 41.7164V40.0218C30.4488 39.9301 30.5231 39.8559 30.6147 39.8559C30.6948 39.8559 30.7633 39.9131 30.7785 39.9917C30.883 40.5324 31.0105 41.0311 31.1611 41.4879C31.1691 41.5114 31.1772 41.5347 31.1854 41.5579Z" fill="var(--fill-0, white)"/>
<g id="&#233;&#138;&#128;&#232;&#161;&#140;_4">
<path fill-rule="evenodd" clip-rule="evenodd" d="M41.9746 36.2091C41.9746 35.9972 41.8029 35.8254 41.591 35.8254H37.9672C37.7553 35.8254 37.5835 35.9972 37.5835 36.2091V36.686C37.5835 36.8979 37.7553 37.0697 37.9672 37.0697H41.591C41.8029 37.0697 41.9746 36.8979 41.9746 36.686V36.2091ZM39.6754 39.96C39.6754 39.7481 39.5036 39.5763 39.2917 39.5763H37.5885C37.3766 39.5763 37.2048 39.4046 37.2048 39.1927V38.7157C37.2048 38.5038 37.3766 38.332 37.5885 38.332H41.8164C42.0283 38.332 42.2001 38.5038 42.2001 38.7157V39.1927C42.2001 39.4046 42.0283 39.5763 41.8164 39.5763H41.4026C41.1907 39.5763 41.0189 39.7481 41.0189 39.96V42.4256C41.0189 42.7563 40.9798 43.0177 40.9017 43.2101C40.8295 43.4025 40.6792 43.5497 40.4508 43.6519C40.2344 43.7481 39.9759 43.8082 39.6754 43.8323C39.466 43.849 39.2363 43.8599 38.9862 43.865C38.7927 43.8689 38.6303 43.7238 38.5866 43.5353C38.5618 43.4282 38.531 43.3138 38.4942 43.1921C38.4719 43.1124 38.4492 43.0362 38.4258 42.9634C38.3599 42.7582 38.5132 42.5349 38.7286 42.5429C38.8909 42.5489 39.0382 42.5519 39.1704 42.5519H39.459C39.5431 42.5519 39.6002 42.5399 39.6303 42.5158C39.6603 42.4918 39.6754 42.4497 39.6754 42.3896V39.96ZM36.6713 36.2424C36.8352 36.0496 36.7578 35.7569 36.524 35.66L36.0153 35.4493C35.8469 35.3795 35.6536 35.4387 35.5402 35.5813C35.4352 35.7132 35.3138 35.8516 35.176 35.9967C34.9536 36.2311 34.7131 36.4595 34.4547 36.682C34.3123 36.8012 34.1708 36.9112 34.0303 37.0122C33.8571 37.1366 33.8206 37.3895 33.9407 37.5656C34.0309 37.6979 34.118 37.8331 34.2022 37.9714C34.3192 38.1552 34.5674 38.2162 34.7413 38.0849C34.9331 37.9401 35.1261 37.782 35.3203 37.6107C35.6329 37.3402 35.9304 37.0547 36.2129 36.7541C36.3752 36.5816 36.528 36.4111 36.6713 36.2424Z" fill="var(--fill-0, white)"/>
<path d="M34.3318 40.9457C34.4094 41.0544 34.5582 41.0847 34.6591 40.9972C34.8069 40.8691 35.0498 40.9656 35.0498 41.1612V43.5117C35.0498 43.7236 35.2216 43.8954 35.4335 43.8954H35.9825C36.1944 43.8954 36.3662 43.7236 36.3662 43.5117V39.2991C36.3662 39.2141 36.3946 39.1316 36.446 39.0639C36.4555 39.0514 36.465 39.0389 36.4744 39.0263C36.6937 38.7409 36.893 38.4569 37.0724 38.1743C37.1985 37.9756 37.1056 37.7148 36.8859 37.6305L36.367 37.4312C36.1902 37.3633 35.9912 37.4351 35.8895 37.595C35.7351 37.8376 35.5604 38.0803 35.3654 38.323C35.0949 38.6536 34.8063 38.9662 34.4997 39.2608C34.3209 39.4325 34.1409 39.5904 33.9599 39.7344C33.7721 39.8839 33.7433 40.1687 33.8924 40.3568C33.8935 40.3581 33.8946 40.3595 33.8956 40.3608C34.0098 40.5051 34.118 40.6493 34.2202 40.7936C34.2608 40.8477 34.298 40.8984 34.3318 40.9457Z" fill="var(--fill-0, white)"/>
</g>
<g id="Union" filter="url(#filter1_i_0_66)">
<path d="M8.95996 21.0806C19.112 21.5452 22.7852 22.0812 24.3164 26.936C24.5719 27.7464 23.9239 28.5288 23.0742 28.5288C22.3302 28.529 21.7275 29.1324 21.7275 29.8765V39.9536C21.7275 41.4845 21.7269 42.2508 21.4473 42.8433C21.1579 43.4561 20.6646 43.9494 20.0518 44.2388C19.4593 44.5184 18.693 44.519 17.1621 44.519C15.6314 44.519 14.8659 44.5184 14.2734 44.2388C13.6604 43.9494 13.1663 43.4563 12.877 42.8433C12.5974 42.2508 12.5977 41.4845 12.5977 39.9536V30.8188C12.5977 29.5545 11.5729 28.529 10.3086 28.5288C9.04418 28.5288 8.01874 27.5041 8.01855 26.2397V22.022C8.01856 21.5021 8.44004 21.0806 8.95996 21.0806ZM31.7012 20.6187C35.5829 19.5843 39.3038 20.8983 40.0117 23.5542C40.7196 26.2103 38.1456 29.2023 34.2637 30.2368C30.382 31.2712 26.6611 29.9571 25.9531 27.3013C25.2453 24.6452 27.8192 21.6532 31.7012 20.6187ZM24.7705 7.51709C25.4144 7.5171 26.0186 7.54264 26.6133 7.59814C29.0197 7.82278 30.4847 10.204 30.1758 12.6011C29.9655 14.2322 28.1976 15.2533 26.5547 15.1782C26.4047 15.1714 26.254 15.1685 26.1035 15.1685C24.5626 15.1685 23.0222 15.5679 22.1455 16.7114C20.8612 18.3867 20.2184 19.2243 20.0137 19.4038C19.7303 19.6522 19.7521 19.6379 19.4141 19.8042C19.1707 19.9239 19.1517 19.9295 19.1162 19.939C17.9174 20.2581 16.4777 20.4723 14.7451 20.6333C13.5842 20.7411 12.5977 19.8119 12.5977 18.646C12.5977 12.8786 16.2498 7.51709 24.7705 7.51709ZM30.8701 14.3335C31.4818 12.5297 34.1146 11.7913 36.751 12.6851C39.3875 13.5791 41.0297 15.7668 40.418 17.5708C39.8062 19.3746 37.1726 20.1122 34.5361 19.2183C31.8998 18.3243 30.2588 16.1374 30.8701 14.3335Z" fill="var(--fill-0, white)"/>
</g>
</g>
<path id="Vector" d="M116.623 43.0061C113.026 43.0061 109.568 40.4823 109.568 35.9315V24.8357C109.568 24.0054 110.241 23.3323 111.072 23.3323H114.325C115.155 23.3323 115.828 24.0054 115.828 24.8357V34.143C115.828 36.2693 117.517 37.2828 119.028 37.2828C120.598 37.2828 122.207 36.2693 122.207 34.143V24.8357C122.207 24.0054 122.88 23.3323 123.711 23.3323H126.964C127.794 23.3323 128.467 24.0054 128.467 24.8357V40.9066C128.467 41.7369 127.794 42.41 126.964 42.41H123.213C122.935 42.41 122.701 42.2005 122.671 41.9239C122.617 41.4389 121.965 41.234 121.578 41.531C120.227 42.5675 118.406 43.0061 116.623 43.0061Z" fill="var(--fill-0, #111111)"/>
<path id="Vector_2" d="M103.867 20.8878C101.86 20.8878 100.449 19.4968 100.449 17.4698C100.449 15.4428 101.84 14.0318 103.867 14.0318C105.894 14.0318 107.325 15.4229 107.325 17.4698C107.325 19.4968 105.894 20.8878 103.867 20.8878ZM96.0572 50.291C95.4933 50.1033 95.2028 49.5209 95.2648 48.9298L95.4923 46.7604C95.5899 45.8291 96.5031 45.2479 97.4335 45.354C97.6395 45.3775 97.844 45.3908 98.0444 45.3908C99.4156 45.3908 100.568 44.7747 100.568 42.6285V24.8356C100.568 24.0053 101.241 23.3322 102.072 23.3322H105.325C106.155 23.3322 106.828 24.0053 106.828 24.8356V43.0855C106.828 48.312 103.211 50.7564 99.4156 50.7564C97.9181 50.7564 96.8183 50.5442 96.0572 50.291Z" fill="var(--fill-0, #111111)"/>
<path id="Vector_3" d="M85.9836 43.006C82.3867 43.006 78.9289 40.4822 78.9289 35.9314V24.8356C78.9289 24.0053 79.602 23.3322 80.4323 23.3322H83.6853C84.5156 23.3322 85.1887 24.0053 85.1887 24.8356V34.1429C85.1887 36.2692 86.8779 37.2827 88.3882 37.2827C89.9581 37.2827 91.5678 36.2692 91.5678 34.1429V24.8356C91.5678 24.0053 92.2409 23.3322 93.0712 23.3322H96.3243C97.1546 23.3322 97.8277 24.0053 97.8277 24.8356V40.9065C97.8277 41.7368 97.1546 42.4099 96.3243 42.4099H92.5735C92.2952 42.4099 92.0615 42.2004 92.0311 41.9238C91.9778 41.4388 91.3258 41.2339 90.9387 41.5309C89.5878 42.5674 87.7669 43.006 85.9836 43.006Z" fill="var(--fill-0, #111111)"/>
<path id="Vector_4" d="M65.2807 29.9428C65.2807 29.1125 64.6076 28.4394 63.7773 28.4394H63.6442C62.8139 28.4394 62.1408 27.7663 62.1408 26.936V24.8356C62.1408 24.0053 62.8139 23.3322 63.6442 23.3322H63.7773C64.6076 23.3322 65.2807 22.6591 65.2807 21.8288V21.6629C65.2807 17.7082 67.7846 14.0318 73.6272 14.0318C74.6333 14.0318 75.498 14.1227 76.4662 14.3407C77.1849 14.5024 77.6319 15.2042 77.5377 15.9348L77.3017 17.7661C77.1735 18.7605 76.0999 19.3823 75.1006 19.3012C74.9158 19.2861 74.7286 19.2782 74.5413 19.2782C72.9316 19.2782 71.322 19.9141 71.322 22.0206C71.322 22.745 71.9092 23.3322 72.6335 23.3322H75.1047C75.935 23.3322 76.6081 24.0053 76.6081 24.8356V26.936C76.6081 27.7663 75.935 28.4394 75.1047 28.4394H73.044C72.2137 28.4394 71.5406 29.1125 71.5406 29.9428V40.9065C71.5406 41.7368 70.8675 42.4099 70.0371 42.4099H66.7841C65.9538 42.4099 65.2807 41.7368 65.2807 40.9065V29.9428Z" fill="var(--fill-0, #111111)"/>
</g>
<defs>
<filter id="filter0_i_0_66" x="0" y="0" width="51.617" height="51.617" filterUnits="userSpaceOnUse" color-interpolation-filters="sRGB">
<feFlood flood-opacity="0" result="BackgroundImageFix"/>
<feBlend mode="normal" in="SourceGraphic" in2="BackgroundImageFix" result="shape"/>
<feColorMatrix in="SourceAlpha" type="matrix" values="0 0 0 0 0 0 0 0 0 0 0 0 0 0 0 0 0 0 127 0" result="hardAlpha"/>
<feOffset/>
<feGaussianBlur stdDeviation="3.50795"/>
<feComposite in2="hardAlpha" operator="arithmetic" k2="-1" k3="1"/>
<feColorMatrix type="matrix" values="0 0 0 0 1 0 0 0 0 1 0 0 0 0 1 0 0 0 1 0"/>
<feBlend mode="normal" in2="shape" result="effect1_innerShadow_0_66"/>
</filter>
<filter id="filter1_i_0_66" x="7.51742" y="7.01595" width="33.0284" height="37.5031" filterUnits="userSpaceOnUse" color-interpolation-filters="sRGB">
<feFlood flood-opacity="0" result="BackgroundImageFix"/>
<feBlend mode="normal" in="SourceGraphic" in2="BackgroundImageFix" result="shape"/>
<feColorMatrix in="SourceAlpha" type="matrix" values="0 0 0 0 0 0 0 0 0 0 0 0 0 0 0 0 0 0 127 0" result="hardAlpha"/>
<feOffset dx="-0.501136" dy="-0.501136"/>
<feGaussianBlur stdDeviation="1.00227"/>
<feComposite in2="hardAlpha" operator="arithmetic" k2="-1" k3="1"/>
<feColorMatrix type="matrix" values="0 0 0 0 0.11668 0 0 0 0 0.0243318 0 0 0 0 0.0768679 0 0 0 0.06 0"/>
<feBlend mode="normal" in2="shape" result="effect1_innerShadow_0_66"/>
</filter>
<radialGradient id="paint0_radial_0_66" cx="0" cy="0" r="1" gradientUnits="userSpaceOnUse" gradientTransform="translate(25.8085 25.8085) rotate(90) scale(46.1045)">
<stop stop-color="#FF1E9E"/>
<stop offset="0.769231" stop-color="#FF1E9E"/>
<stop offset="1" stop-color="#FB0F95"/>
</radialGradient>
</defs>
</svg>
