<svg width="100%" height="100%" overflow="visible" style="display: block;" viewBox="0 0 32 32" fill="none" xmlns="http://www.w3.org/2000/svg">
<g transform="translate(0.645 0) scale(1.3502)">
<g id="Group">
<g id="Vector">
</g>
<path id="Vector_2" d="M21.2913 0.0371602C21.499 -0.0165602 21.7176 -0.0119574 21.9228 0.0504627C22.1281 0.112883 22.3122 0.230702 22.4549 0.390965C22.5975 0.551228 22.6932 0.747727 22.7314 0.958854C22.7697 1.16998 22.7489 1.38756 22.6715 1.58766L15.6715 19.671C15.6022 19.8501 15.4899 20.0093 15.3443 20.1346C15.1988 20.2599 15.0246 20.3472 14.8371 20.389C14.6497 20.4308 14.4549 20.4257 14.2699 20.3741C14.0849 20.3225 13.9156 20.2261 13.7768 20.0933L9.83116 16.3192L8.42766 17.7215C7.68566 18.4635 6.41632 17.9385 6.41632 16.8885V13.0525L0.360156 7.25999C0.209893 7.11623 0.100786 6.93493 0.0441312 6.73484C-0.0125237 6.53475 -0.0146676 6.32315 0.0379217 6.12196C0.090511 5.92076 0.195922 5.73728 0.343241 5.5905C0.49056 5.44373 0.674433 5.339 0.875822 5.28716L21.2913 0.0371602ZM18.825 5.05966L9.49399 12.7678L14.1257 17.1988L18.825 5.05966ZM16.984 3.55466L3.48916 7.02316L7.79649 11.1415L16.984 3.55233V3.55466Z" fill="#0CD80C"/>
</g>
</g>
</svg>
