<svg width="27" height="29" viewBox="0 0 26.6672 28.7299" fill="none" xmlns="http://www.w3.org/2000/svg">
<path d="M14.9708 0.561851C14.5027 0.197705 13.9265 0 13.3335 0C12.7404 0 12.1643 0.197705 11.6961 0.561851L0.517472 9.25518C-0.485195 10.0379 0.066805 11.6445 1.33747 11.6445H2.66681V22.3112C2.66681 23.0184 2.94776 23.6967 3.44785 24.1968C3.94795 24.6969 4.62623 24.9779 5.33347 24.9779H10.6668V16.9779C10.6668 16.2706 10.9478 15.5923 11.4479 15.0922C11.948 14.5921 12.6262 14.3112 13.3335 14.3112C14.0407 14.3112 14.719 14.5921 15.2191 15.0922C15.7192 15.5923 16.0001 16.2706 16.0001 16.9779V24.9779H21.3335C22.0407 24.9779 22.719 24.6969 23.2191 24.1968C23.7192 23.6967 24.0001 23.0184 24.0001 22.3112V11.6445H25.3295C26.5988 11.6445 27.1535 10.0379 26.1495 9.25652L14.9708 0.561851Z" fill="black"/>
</svg>
