<svg width="100%" height="100%" overflow="visible" style="display: block;" viewBox="0 0 24 27.752" fill="none" xmlns="http://www.w3.org/2000/svg">
<g id="Group">
<g id="Vector">
</g>
<path id="Vector_2" d="M10.6667 1.33691e-07C11.3394 -0.000212772 11.9874 0.253875 12.4807 0.711329C12.974 1.16878 13.2762 1.79579 13.3267 2.46667L13.3333 2.66667V10.6667C13.3335 11.3394 13.0795 11.9874 12.622 12.4807C12.1646 12.974 11.5375 13.2762 10.8667 13.3267L10.6667 13.3333H2.66667C1.9939 13.3335 1.34591 13.0795 0.852603 12.622C0.359294 12.1646 0.0571246 11.5375 0.00666695 10.8667L1.33691e-07 10.6667V2.66667C-0.000212772 1.9939 0.253875 1.34591 0.711329 0.852603C1.16878 0.359294 1.79579 0.0571246 2.46667 0.00666695L2.66667 1.33691e-07H10.6667ZM10.6667 2.66667H2.66667V10.6667H10.6667V2.66667ZM7.33333 5.33333C7.48937 5.33328 7.64048 5.38796 7.76035 5.48785C7.88021 5.58774 7.96125 5.72651 7.98933 5.88L8 6V7.33333C8.00005 7.48937 7.94537 7.64048 7.84548 7.76035C7.74559 7.88021 7.60682 7.96125 7.45333 7.98933L7.33333 8H6C5.84397 8.00005 5.69286 7.94537 5.57299 7.84548C5.45312 7.74559 5.37209 7.60682 5.344 7.45333L5.33333 7.33333V6C5.33328 5.84397 5.38796 5.69286 5.48785 5.57299C5.58774 5.45312 5.72651 5.37209 5.88 5.344L6 5.33333H7.33333ZM24 2.66667C24 1.95942 23.719 1.28115 23.219 0.781049C22.7189 0.280952 22.0406 1.33691e-07 21.3333 1.33691e-07H18.6667C17.9594 1.33691e-07 17.2811 0.280952 16.781 0.781049C16.281 1.28115 16 1.95942 16 2.66667V5.33333C16 6.04058 16.281 6.71885 16.781 7.21895C17.2811 7.71905 17.9594 8 18.6667 8H21.3333C22.0406 8 22.7189 7.71905 23.219 7.21895C23.719 6.71885 24 6.04058 24 5.33333V2.66667ZM18.6667 2.66667H21.3333V5.33333H18.6667V2.66667ZM5.33333 16C6.04058 16 6.71885 16.281 7.21895 16.781C7.71905 17.2811 8 17.9594 8 18.6667V21.3333C8 22.0406 7.71905 22.7189 7.21895 23.219C6.71885 23.719 6.04058 24 5.33333 24H2.66667C1.95942 24 1.28115 23.719 0.781049 23.219C0.280952 22.7189 1.33691e-07 22.0406 1.33691e-07 21.3333V18.6667C1.33691e-07 17.9594 0.280952 17.2811 0.781049 16.781C1.28115 16.281 1.95942 16 2.66667 16H5.33333ZM5.33333 18.6667H2.66667V21.3333H5.33333V18.6667ZM24 18.6667C24 17.9594 23.719 17.2811 23.219 16.781C22.7189 16.281 22.0406 16 21.3333 16H18.6667C17.9594 16 17.2811 16.281 16.781 16.781C16.281 17.2811 16 17.9594 16 18.6667V21.3333C16 22.0406 16.281 22.7189 16.781 23.219C17.2811 23.719 17.9594 24 18.6667 24H21.3333C22.0406 24 22.7189 23.719 23.219 23.219C23.719 22.7189 24 22.0406 24 21.3333V18.6667ZM18.6667 18.6667H21.3333V21.3333H18.6667V18.6667ZM16 12C16 11.6464 16.1405 11.3072 16.3905 11.0572C16.6406 10.8071 16.9797 10.6667 17.3333 10.6667H22.6667C23.0203 10.6667 23.3594 10.8071 23.6095 11.0572C23.8595 11.3072 24 11.6464 24 12C24 12.3536 23.8595 12.6928 23.6095 12.9428C23.3594 13.1929 23.0203 13.3333 22.6667 13.3333H17.3333C16.9797 13.3333 16.6406 13.1929 16.3905 12.9428C16.1405 12.6928 16 12.3536 16 12ZM13.3333 17.3333C13.3333 16.9797 13.1929 16.6406 12.9428 16.3905C12.6928 16.1405 12.3536 16 12 16C11.6464 16 11.3072 16.1405 11.0572 16.3905C10.8071 16.6406 10.6667 16.9797 10.6667 17.3333V22.6667C10.6667 23.0203 10.8071 23.3594 11.0572 23.6095C11.3072 23.8595 11.6464 24 12 24C12.3536 24 12.6928 23.8595 12.9428 23.6095C13.1929 23.3594 13.3333 23.0203 13.3333 22.6667V17.3333Z" fill="white"/>
</g>
</svg>
