<svg xmlns="http://www.w3.org/2000/svg" viewBox="0 0 252.099 351.986" fill="none">
  <!-- 3 枚のリング (Subtract、Figma node 175-2457 / Group 13)。
       各リングは外側 #EEEFF1 を fill-rule:evenodd で donut 化し、内側を bg と同色 (#F6F7F9)
       で塗ることで重なり時の不透明度を担保する。 -->

  <!-- Subtract 1 (lower) -->
  <path fill-rule="evenodd" fill="#EEEFF1" d="M140.692 172.615C194.249 178.233 235.234 210.73 235.386 247.695L235.267 251.408L233.264 280.065C230.486 319.786 181.224 348.699 123.234 344.644C65.2452 340.589 20.4856 305.102 23.2632 265.38L25.2671 236.723C27.9589 198.243 74.2748 169.905 129.888 171.859C131.681 171.923 133.485 172.017 135.297 172.144C137.108 172.271 138.907 172.428 140.692 172.615ZM133.748 196.109C92.0084 193.191 56.7456 211.204 54.9877 236.343C53.2313 261.482 85.6433 284.228 127.383 287.147C169.123 290.066 204.384 272.051 206.143 246.913C207.901 221.774 175.489 199.028 133.748 196.109Z"/>
  <path fill="#F6F7F9" d="M133.748 196.109C92.0084 193.191 56.7456 211.204 54.9877 236.343C53.2313 261.482 85.6433 284.228 127.383 287.147C169.123 290.066 204.384 272.051 206.143 246.913C207.901 221.774 175.489 199.028 133.748 196.109Z"/>

  <!-- Subtract 2 (middle) -->
  <path fill-rule="evenodd" fill="#EEEFF1" d="M152.271 89.6307C206.049 92.4384 248.678 122.746 250.765 159.652L250.84 163.366L250.339 192.088C249.644 231.901 201.963 263.352 143.84 262.338C85.7186 261.323 39.1631 228.227 39.8581 188.415L40.3594 159.692C41.0336 121.123 85.803 90.4009 141.442 89.4417C143.236 89.4108 145.043 89.4111 146.858 89.4427C148.674 89.4745 150.479 89.5372 152.271 89.6307ZM146.567 113.456C104.731 112.726 70.4592 132.56 70.0194 157.757C69.5811 182.953 103.139 203.972 144.974 204.702C186.809 205.432 221.08 185.597 221.521 160.402C221.961 135.205 188.403 114.187 146.567 113.456Z"/>
  <path fill="#F6F7F9" d="M146.567 113.456C104.731 112.726 70.4592 132.56 70.0194 157.757C69.5811 182.953 103.139 203.972 144.974 204.702C186.809 205.432 221.08 185.597 221.521 160.402C221.961 135.205 188.403 114.187 146.567 113.456Z"/>

  <!-- Subtract 3 (upper) -->
  <path fill-rule="evenodd" fill="#EEEFF1" d="M109.608 13.9878C163.163 8.3482 210.008 31.6136 217.843 67.739L218.499 71.3957L222.496 99.8429C228.038 139.274 185.864 177.797 128.298 185.888C70.7334 193.978 19.5737 168.572 14.032 129.141L10.0341 100.693C4.66645 62.494 44.0786 25.1463 98.8829 15.4951C100.65 15.1839 102.434 14.9016 104.232 14.6489C106.031 14.3961 107.823 14.1758 109.608 13.9878ZM107.701 38.4124C66.2659 44.2357 35.5189 69.187 39.0262 94.1424C42.5347 119.097 78.9677 134.607 120.402 128.784C161.836 122.961 192.582 98.0089 189.076 73.0542C185.569 48.0989 149.136 32.5891 107.701 38.4124Z"/>
  <path fill="#F6F7F9" d="M107.701 38.4124C66.2659 44.2357 35.5189 69.187 39.0262 94.1424C42.5347 119.097 78.9677 134.607 120.402 128.784C161.836 122.961 192.582 98.0089 189.076 73.0542C185.569 48.0989 149.136 32.5891 107.701 38.4124Z"/>
</svg>
