<svg preserveAspectRatio="none" width="100%" height="100%" overflow="visible" style="display: block;" viewBox="0 0 407.616 407.615" fill="none" xmlns="http://www.w3.org/2000/svg">
<g id="Group 41" opacity="0.3">
<mask id="mask0_598_8484" style="mask-type:alpha" maskUnits="userSpaceOnUse" x="0" y="0" width="408" height="408">
<rect id="Rectangle 37" width="407.615" height="407.615" rx="106.681" fill="var(--fill-0, #D9D9D9)"/>
</mask>
<g mask="url(#mask0_598_8484)">
<rect id="Rectangle 38" x="1.99031" y="1.99031" width="403.635" height="403.635" rx="104.69" stroke="var(--stroke-0, #FF0000)" stroke-width="3.98062"/>
<path id="Union" d="M408.459 0.845127L359.545 49.7582H407.615V52.1469H357.857V100.71H407.615V103.099H357.857V146.278C358.522 148.058 359.158 149.853 359.762 151.662H407.615V154.05H360.539C365.404 169.386 368.078 185.696 368.199 202.614H407.615V205.002H368.199C368.078 221.92 365.403 238.23 360.538 253.566H407.615V255.955H359.761C359.157 257.763 358.522 259.557 357.857 261.336V304.518H407.615V306.907H357.857V355.469H407.615V357.858H359.546L408.459 406.771L406.77 408.46L357.857 359.547V407.616H355.468V357.858H306.905V407.616H304.516V357.858H261.333C259.554 358.522 257.761 359.157 255.954 359.761V407.616H253.565V360.538C238.229 365.403 221.919 368.079 205.001 368.2V407.616H202.613V368.2C185.695 368.079 169.385 365.403 154.049 360.538V407.616H151.661V359.761C149.853 359.157 148.06 358.522 146.281 357.858H103.097V407.616H100.708V357.858H52.1459V407.616H49.7572V359.546L0.84415 408.46L-0.845303 406.771L48.0668 357.858H-0.000576543V355.469H49.7572V306.907H-0.000576543V304.518H49.7572V261.334C49.0926 259.555 48.4571 257.762 47.8529 255.955H-0.000576543V253.566H47.0756C42.2111 238.23 39.5359 221.92 39.4154 205.002H-0.000576543V202.614H39.4154C39.5358 185.696 42.2112 169.386 47.0756 154.05H-0.000576543V151.662H47.8529C48.4573 149.853 49.0924 148.059 49.7572 146.28V103.099H-0.000576543V100.71H49.7572V52.1469H-0.000576543V49.7582H48.0678L-0.845303 0.845127L0.84415 -0.844327L49.7572 48.0688V0.000400007H52.1459V49.7582H100.708V0.000400007H103.097V49.7582H146.278C148.058 49.0932 149.852 48.4574 151.661 47.8529V0.000400007H154.049V47.0756C169.385 42.2112 185.695 39.5359 202.613 39.4154V0.000400007H205.001V39.4154C221.919 39.5358 238.229 42.2112 253.565 47.0756V0.000400007H255.954V47.8529C257.762 48.4574 259.556 49.0932 261.336 49.7582H304.516V0.000400007H306.905V49.7582H355.468V0.000400007H357.857V48.0678L406.77 -0.844327L408.459 0.845127ZM154.049 358.033C169.367 362.971 185.681 365.69 202.613 365.812V357.858H154.049V358.033ZM205.001 365.812C221.933 365.69 238.247 362.971 253.565 358.033V357.858H205.001V365.812ZM53.8344 355.469H100.708V331.868C96.4261 328.416 92.3218 324.752 88.4086 320.895L53.8344 355.469ZM103.097 330.717C116.149 341.089 130.836 349.49 146.71 355.469H151.661V306.907H103.097V330.717ZM154.049 355.469H202.613V306.907H154.049V355.469ZM205.001 355.469H253.565V306.907H205.001V355.469ZM304.516 333.755C293.214 342.527 280.738 349.857 267.362 355.469H304.516V333.755ZM319.205 320.895C315.291 324.752 311.187 328.416 306.905 331.869V355.469H353.779L319.205 320.895ZM255.954 355.469H260.905C276.778 349.49 291.465 341.09 304.516 330.719V306.907H255.954V355.469ZM103.097 355.469H140.253C126.877 349.857 114.4 342.527 103.097 333.754V355.469ZM331.868 306.907C328.416 311.189 324.751 315.292 320.894 319.205L355.468 353.78V306.907H331.868ZM52.1459 353.779L86.7192 319.205C82.8623 315.292 79.1983 311.189 75.7465 306.907H52.1459V353.779ZM306.905 328.788C310.582 325.75 314.122 322.552 317.516 319.206L306.905 308.594V328.788ZM90.0981 319.205C93.4922 322.55 97.0311 325.749 100.708 328.786V308.594L90.0981 319.205ZM78.8295 306.907C81.8662 310.584 85.0632 314.123 88.4076 317.517L99.018 306.907H78.8295ZM319.205 317.517C322.55 314.123 325.749 310.584 328.787 306.907H308.595L319.205 317.517ZM52.1459 260.902C58.1253 276.777 66.5261 291.465 76.8979 304.518H100.708V255.955H52.1459V260.902ZM104.786 304.518H151.661V292.762C144.412 288.504 137.729 283.387 131.754 277.548L104.786 304.518ZM253.565 294.122C245.031 298.834 235.76 302.373 225.966 304.518H253.565V294.122ZM355.468 267.364C349.856 280.74 342.526 293.216 333.754 304.518H355.468V267.364ZM306.905 304.518H330.717C341.089 291.466 349.489 276.779 355.468 260.904V255.955H306.905V304.518ZM275.859 277.548C269.884 283.387 263.202 288.504 255.954 292.762V304.518H302.828L275.859 277.548ZM154.049 304.518H181.648C171.854 302.373 162.583 298.834 154.049 294.122V304.518ZM52.1459 304.518H73.8608C65.0884 293.215 57.7582 280.738 52.1459 267.362V304.518ZM154.049 291.384C168.404 299.557 184.962 304.304 202.613 304.509V255.955H154.049V291.384ZM205.001 304.509C222.652 304.304 239.211 299.557 253.565 291.384V255.955H205.001V304.509ZM103.097 302.828L130.066 275.859C124.227 269.884 119.109 263.202 114.851 255.955H103.097V302.828ZM292.763 255.955C288.505 263.203 283.386 269.885 277.547 275.86L304.516 302.828V255.955H292.763ZM255.954 289.982C262.561 285.975 268.671 281.229 274.169 275.859L255.954 257.643V289.982ZM133.444 275.859C138.942 281.229 145.053 285.974 151.661 289.981V257.642L133.444 275.859ZM117.633 255.955C121.64 262.562 126.385 268.673 131.754 274.17L149.97 255.955H117.633ZM275.858 274.17C281.228 268.672 285.974 262.562 289.981 255.955H257.642L275.858 274.17ZM357.857 205.002V253.566H358.033C362.971 238.248 365.69 221.934 365.812 205.002H357.857ZM41.8041 205.002C41.9264 221.934 44.6441 238.248 49.5824 253.566H49.7572V205.002H41.8041ZM52.1459 253.566H100.708V205.002H52.1459V253.566ZM103.105 205.002C103.31 222.653 108.057 239.212 116.23 253.566H151.661V205.002H103.105ZM155.738 253.566H202.613V245.585C191.972 245.287 182.328 241.011 175.111 234.193L155.738 253.566ZM304.516 225.972C302.371 235.764 298.833 245.034 294.122 253.566H304.516V225.972ZM306.905 253.566H355.468V205.002H306.905V253.566ZM255.954 253.566H291.384C299.557 239.212 304.304 222.653 304.509 205.002H255.954V253.566ZM232.502 234.193C225.285 241.011 215.642 245.287 205.001 245.585V253.566H251.875L232.502 234.193ZM103.097 253.566H113.492C108.78 245.033 105.242 235.761 103.097 225.968V253.566ZM245.585 205.002C245.287 215.643 241.011 225.287 234.192 232.504L253.565 251.877V205.002H245.585ZM154.049 251.875L173.421 232.503C166.603 225.286 162.327 215.642 162.029 205.002H154.049V251.875ZM176.8 232.502C183.584 238.89 192.631 242.898 202.613 243.196V206.69L176.8 232.502ZM205.001 243.196C214.982 242.899 224.029 238.89 230.813 232.503L205.001 206.691V243.196ZM232.502 230.815C238.89 224.031 242.898 214.983 243.196 205.002H206.69L232.502 230.815ZM164.418 205.002C164.716 214.983 168.724 224.03 175.111 230.814L200.923 205.002H164.418ZM357.857 154.05V202.614H365.812C365.69 185.682 362.971 169.368 358.033 154.05H357.857ZM49.5824 154.05C44.6442 169.368 41.9263 185.682 41.8041 202.614H49.7572V154.05H49.5824ZM52.1459 202.614H100.708V154.05H52.1459V202.614ZM116.23 154.05C108.057 168.404 103.31 184.963 103.105 202.614H151.661V154.05H116.23ZM234.193 175.111C241.011 182.328 245.287 191.973 245.585 202.614H253.565V155.738L234.193 175.111ZM306.905 202.614H355.468V154.05H306.905V202.614ZM255.954 202.614H304.509C304.304 184.963 299.556 168.404 291.383 154.05H255.954V202.614ZM206.69 202.614H243.196C242.899 192.632 238.89 183.585 232.502 176.8L206.69 202.614ZM175.111 176.801C168.724 183.585 164.715 192.633 164.418 202.614H200.923L175.111 176.801ZM154.049 202.614H162.029C162.327 191.973 166.602 182.328 173.42 175.111L154.049 155.74V202.614ZM202.613 164.418C192.632 164.716 183.584 168.724 176.8 175.112L202.613 200.924V164.418ZM205.001 200.923L230.814 175.111C224.03 168.724 214.982 164.715 205.001 164.418V200.923ZM103.097 181.648C105.242 171.855 108.78 162.583 113.492 154.05H103.097V181.648ZM294.122 154.05C298.833 162.582 302.371 171.852 304.516 181.644V154.05H294.122ZM175.11 173.421C182.327 166.602 191.972 162.326 202.613 162.028V154.05H155.739L175.11 173.421ZM205.001 162.029C215.642 162.327 225.286 166.603 232.503 173.421L251.874 154.05H205.001V162.029ZM76.8959 103.099C66.5249 116.151 58.1251 130.839 52.1459 146.713V151.662H100.708V103.099H76.8959ZM202.613 103.106C184.962 103.311 168.403 108.058 154.049 116.231V151.662H202.613V103.106ZM205.001 151.662H253.565V116.231C239.211 108.058 222.652 103.311 205.001 103.106V151.662ZM277.547 131.755C283.386 137.73 288.504 144.413 292.762 151.662H304.516V104.787L277.547 131.755ZM306.905 151.662H355.468V146.71C349.489 130.837 341.09 116.15 330.719 103.099H306.905V151.662ZM257.641 151.662H289.981C285.974 145.053 281.228 138.943 275.858 133.445L257.641 151.662ZM131.754 133.445C126.384 138.943 121.639 145.054 117.632 151.662H149.971L131.754 133.445ZM103.097 151.662H114.852C119.11 144.414 124.227 137.731 130.066 131.756L103.097 104.788V151.662ZM151.661 117.633C145.053 121.64 138.942 126.385 133.444 131.755L151.661 149.972V117.633ZM255.954 149.971L274.169 131.755C268.672 126.386 262.561 121.64 255.954 117.633V149.971ZM52.1459 140.252C57.7578 126.877 65.0882 114.401 73.8598 103.099H52.1459V140.252ZM333.755 103.099C342.526 114.4 349.856 126.875 355.468 140.25V103.099H333.755ZM131.755 130.067C137.73 124.228 144.413 119.111 151.661 114.853V103.099H104.788L131.755 130.067ZM255.954 114.852C263.201 119.11 269.883 124.228 275.858 130.067L302.826 103.099H255.954V114.852ZM154.049 113.493C162.581 108.782 171.851 105.244 181.643 103.099H154.049V113.493ZM225.971 103.099C235.763 105.244 245.033 108.782 253.565 113.493V103.099H225.971ZM146.71 52.1469C130.836 58.1263 116.149 66.5267 103.097 76.8979V100.71H151.661V52.1469H146.71ZM154.049 100.71H202.613V52.1469H154.049V100.71ZM205.001 100.71H253.565V52.1469H205.001V100.71ZM255.954 100.71H304.516V76.8969C291.465 66.5264 276.779 58.126 260.905 52.1469H255.954V100.71ZM320.894 88.4086C324.752 92.3226 328.417 96.4271 331.87 100.71H355.468V53.8344L320.894 88.4086ZM308.593 100.71H328.788C325.75 97.0323 322.551 93.4928 319.205 90.0981L308.593 100.71ZM88.4076 90.0981C85.0627 93.4924 81.8656 97.0328 78.8285 100.71H99.0199L88.4076 90.0981ZM52.1459 100.71H75.7455C79.1977 96.4276 82.8618 92.3231 86.7192 88.4096L52.1459 53.8363V100.71ZM100.708 78.8295C97.0311 81.8665 93.4912 85.0638 90.0971 88.4086L100.708 99.0199V78.8295ZM306.905 99.0199L317.516 88.4086C314.122 85.0635 310.582 81.8648 306.905 78.8275V99.0199ZM88.4086 86.7201C92.3219 82.8629 96.4259 79.1986 100.708 75.7465V52.1469H53.8354L88.4086 86.7201ZM306.905 75.7455C311.187 79.1977 315.292 82.8618 319.205 86.7192L353.778 52.1469H306.905V75.7455ZM103.097 73.8598C114.399 65.0882 126.875 57.7589 140.25 52.1469H103.097V73.8598ZM267.365 52.1469C280.74 57.7587 293.215 65.0886 304.516 73.8598V52.1469H267.365ZM202.613 41.8041C185.681 41.9264 169.367 44.6441 154.049 49.5824V49.7582H202.613V41.8041ZM205.001 49.7582H253.565V49.5824C238.247 44.6442 221.933 41.9264 205.001 41.8041V49.7582Z" fill="var(--fill-0, #FF0000)"/>
</g>
</g>
</svg>
