<svg width="407.615" height="407.615" viewBox="0 0 407.615 407.615" fill="none" xmlns="http://www.w3.org/2000/svg">
  <path d="M82.6681 164.83C162.84 168.5 191.846 172.733 203.937 211.074C205.954 217.473 200.839 223.65 194.13 223.651C188.253 223.651 183.489 228.415 183.489 234.291V313.872C183.489 325.962 183.489 332.007 181.281 336.686C178.996 341.528 175.098 345.426 170.256 347.711C165.577 349.919 159.532 349.919 147.443 349.919C135.353 349.919 129.308 349.919 124.629 347.711C119.787 345.426 115.889 341.528 113.604 336.686C111.396 332.007 111.396 325.962 111.396 313.872V241.732C111.396 231.902 103.552 223.904 93.7814 223.656L92.8478 223.645C83.0778 223.397 75.2337 215.399 75.2336 205.57V172.265C75.2336 168.159 78.5623 164.83 82.6681 164.83ZM262.255 161.182C292.91 153.012 322.293 163.392 327.883 184.366C333.473 205.341 313.153 228.968 282.498 237.138C251.843 245.308 222.46 234.927 216.87 213.952C211.28 192.978 231.6 169.352 262.255 161.182ZM207.522 57.719C212.608 57.719 217.38 57.9212 222.077 58.3596C241.081 60.1338 252.647 78.9397 250.207 97.8694C248.547 110.75 234.586 118.815 221.612 118.222C220.428 118.168 219.24 118.14 218.051 118.14C205.882 118.14 193.715 121.296 186.791 130.327C176.649 143.557 171.578 150.171 169.961 151.589C167.721 153.553 167.893 153.438 165.22 154.753C163.291 155.702 163.15 155.74 162.867 155.815C153.401 158.335 142.036 160.026 128.354 161.297C119.186 162.149 111.396 154.812 111.396 145.605C111.396 100.06 140.234 57.7192 207.522 57.719ZM255.689 111.545C260.519 97.2998 281.314 91.4745 302.134 98.5344C322.954 105.594 335.916 122.866 331.086 137.112C326.256 151.357 305.461 157.183 284.641 150.123C263.82 143.063 250.858 125.791 255.689 111.545Z" fill="white"/>
</svg>
